<svg fill="#fff" xmlns="http://www.w3.org/2000/svg" viewBox="0 0 700 700"><path d="M421.81 253.68c-6.836-2.828-12.512.594-18.496 5.98-38.328 34.496-74.016 71.72-111.47 107.11-6.66 6.29-10.047 12.423-8.277 21.97 1.976 10.664-2.352 19.55-11.492 25.832-11.793 8.109-25.988 5.136-31.516-7.954-2.496-5.918-5.153-7.734-11.094-8.062-9.239-.52-15.934-5.64-18.496-14.633-2.516-8.824.336-16.773 6.797-23.051 7.492-7.273 16.754-11.137 27.203-10.23 6.382.555 10.785-1.344 15.332-5.66 38.129-36.172 76.44-72.152 114.74-108.13 7.336-6.895 13.758-12.914 10.602-25.367-2.743-10.832 7.05-21.113 18.562-23.633 10.367-2.27 19.699 2.273 23.03 13.957 2.22 7.773 5.82 9.238 12.876 10.09 11.848 1.43 19.395 10.465 19.512 21.14.101 8.903-6.59 16.274-17.832 19.306-6.121 1.648-12.445 1.84-19.984 1.34zM248.63 358.77c-6.965-1.992-12.801.84-18.43 3.535-8.652 4.145-13.16 11.97-11.133 18.742 2.465 8.227 9.144 9.598 16.375 8.899 8.422-.813 12.332 1.687 12.977 11.008.578 8.398 8.77 11.633 16.328 7.953 7.27-3.54 12.531-10.95 10.125-19.45-3.73-13.171 2.7-20.66 11.121-28.632a18724.37 18724.37 0 0 0 118.68-113.33c4.492-4.328 8.727-5.375 14.117-3.164 8.496 3.484 16.609 1.238 24.523-1.82 4.016-1.552 7.309-4.376 7.242-9.34-.074-5.176-2.351-9.25-7.078-11.356-2.824-1.261-6.027-1.859-9.121-2.261-4.137-.54-8.266 3.23-12.281.93-5.48-3.141-1.652-8.602-2.375-12.958-1.773-10.68-11.047-14.598-19.828-8.293-5.371 3.86-7.61 9.481-5.438 15.238 4.067 10.77-1.863 16.145-8.914 22.605-31.406 28.785-63.94 56.38-93 87.68-9.3 10.012-19.453 19.234-29.043 28.992-4.304 4.36-8.574 7.957-14.848 5.024z"/></svg>